<svg width="16" height="16" viewBox="0 0 16 16" fill="none" xmlns="http://www.w3.org/2000/svg">
<path d="M10.9103 4.27686C9.65029 4.27686 9.11779 4.87811 8.24029 4.87811C7.34061 4.87811 6.65436 4.28123 5.56248 4.28123C4.49373 4.28123 3.35404 4.93373 2.63029 6.04529C1.61404 7.61279 1.78654 10.565 3.43248 13.08C4.02123 13.9803 4.80748 14.99 5.83873 15.0009H5.85748C6.75373 15.0009 7.01998 14.414 8.25342 14.4072H8.27217C9.48717 14.4072 9.73092 14.9975 10.6234 14.9975H10.6422C11.6734 14.9865 12.5019 13.8678 13.0906 12.9709C13.5144 12.3259 13.6719 12.0022 13.9969 11.2725C11.6159 10.3687 11.2334 6.99342 13.5881 5.69936C12.8694 4.79936 11.8594 4.27811 10.9072 4.27811L10.9103 4.27686Z" fill="#ADB5BD"/>
<path d="M10.6328 1C9.88285 1.05094 9.00785 1.52844 8.49535 2.15187C8.03035 2.71687 7.64785 3.555 7.79785 4.36781H7.85785C8.6566 4.36781 9.4741 3.88687 9.9516 3.27062C10.4116 2.68406 10.7603 1.85281 10.6328 1Z" fill="#ADB5BD"/>
</svg>
