<svg width="14" height="17" viewBox="0 0 14 17" fill="none" xmlns="http://www.w3.org/2000/svg">
<path d="M12.0526 8.07895H1.94737V3.86842H12.0526M10.7895 13.1316C10.4545 13.1316 10.1332 12.9985 9.89629 12.7616C9.6594 12.5247 9.52632 12.2034 9.52632 11.8684C9.52632 11.5334 9.6594 11.2121 9.89629 10.9752C10.1332 10.7383 10.4545 10.6053 10.7895 10.6053C11.1245 10.6053 11.4458 10.7383 11.6827 10.9752C11.9195 11.2121 12.0526 11.5334 12.0526 11.8684C12.0526 12.2034 11.9195 12.5247 11.6827 12.7616C11.4458 12.9985 11.1245 13.1316 10.7895 13.1316ZM3.21053 13.1316C2.87552 13.1316 2.55423 12.9985 2.31734 12.7616C2.08045 12.5247 1.94737 12.2034 1.94737 11.8684C1.94737 11.5334 2.08045 11.2121 2.31734 10.9752C2.55423 10.7383 2.87552 10.6053 3.21053 10.6053C3.54554 10.6053 3.86683 10.7383 4.10371 10.9752C4.3406 11.2121 4.47368 11.5334 4.47368 11.8684C4.47368 12.2034 4.3406 12.5247 4.10371 12.7616C3.86683 12.9985 3.54554 13.1316 3.21053 13.1316ZM0.263157 12.2895C0.263157 13.0305 0.591578 13.6958 1.10526 14.1589V15.6579C1.10526 15.8812 1.19398 16.0954 1.35191 16.2534C1.50983 16.4113 1.72403 16.5 1.94737 16.5H2.78947C3.01281 16.5 3.22701 16.4113 3.38493 16.2534C3.54286 16.0954 3.63158 15.8812 3.63158 15.6579V14.8158H10.3684V15.6579C10.3684 15.8812 10.4571 16.0954 10.6151 16.2534C10.773 16.4113 10.9872 16.5 11.2105 16.5H12.0526C12.276 16.5 12.4902 16.4113 12.6481 16.2534C12.806 16.0954 12.8947 15.8812 12.8947 15.6579V14.1589C13.4084 13.6958 13.7368 13.0305 13.7368 12.2895V3.86842C13.7368 0.921053 10.7221 0.5 7 0.5C3.27789 0.5 0.263157 0.921053 0.263157 3.86842V12.2895Z" fill="#ADB5BD"/>
</svg>
