<svg width="17" height="16" viewBox="0 0 17 16" fill="none" xmlns="http://www.w3.org/2000/svg">
<path d="M15.037 6.69437H14.5V6.66671H8.50004V9.33337H12.2677C11.718 10.8857 10.241 12 8.50004 12C6.29104 12 4.50004 10.209 4.50004 8.00004C4.50004 5.79104 6.29104 4.00004 8.50004 4.00004C9.51971 4.00004 10.4474 4.38471 11.1537 5.01304L13.0394 3.12737C11.8487 2.01771 10.256 1.33337 8.50004 1.33337C4.81837 1.33337 1.83337 4.31837 1.83337 8.00004C1.83337 11.6817 4.81837 14.6667 8.50004 14.6667C12.1817 14.6667 15.1667 11.6817 15.1667 8.00004C15.1667 7.55304 15.1207 7.11671 15.037 6.69437Z" fill="#FFC107"/>
<path d="M2.60205 4.89704L4.79238 6.50337C5.38505 5.03604 6.82038 4.00004 8.50005 4.00004C9.51972 4.00004 10.4474 4.38471 11.1537 5.01304L13.0394 3.12737C11.8487 2.01771 10.2561 1.33337 8.50005 1.33337C5.93938 1.33337 3.71872 2.77904 2.60205 4.89704Z" fill="#FF3D00"/>
<path d="M8.49994 14.6667C10.2219 14.6667 11.7866 14.0077 12.9696 12.936L10.9063 11.19C10.2145 11.7161 9.36909 12.0007 8.49994 12C6.76594 12 5.29361 10.8943 4.73894 9.35132L2.56494 11.0263C3.66827 13.1853 5.90894 14.6667 8.49994 14.6667Z" fill="#4CAF50"/>
<path d="M15.037 6.69429H14.5V6.66663H8.5V9.33329H12.2677C12.0047 10.0721 11.5311 10.7177 10.9053 11.1903L10.9063 11.1896L12.9697 12.9356C12.8237 13.0683 15.1667 11.3333 15.1667 7.99996C15.1667 7.55296 15.1207 7.11663 15.037 6.69429Z" fill="#1976D2"/>
</svg>
