<svg width="16" height="16" viewBox="0 0 16 16" fill="none" xmlns="http://www.w3.org/2000/svg">
<path d="M10.9109 4.27734C9.6509 4.27734 9.1184 4.87859 8.2409 4.87859C7.34122 4.87859 6.65497 4.28172 5.56309 4.28172C4.49434 4.28172 3.35465 4.93422 2.6309 6.04578C1.61465 7.61328 1.78715 10.5655 3.43309 13.0805C4.02184 13.9808 4.80809 14.9905 5.83934 15.0014H5.85809C6.75434 15.0014 7.02059 14.4145 8.25403 14.4077H8.27278C9.48778 14.4077 9.73153 14.998 10.624 14.998H10.6428C11.674 14.987 12.5025 13.8683 13.0912 12.9714C13.515 12.3264 13.6725 12.0027 13.9975 11.273C11.6165 10.3692 11.234 6.99391 13.5887 5.69984C12.87 4.79984 11.86 4.27859 10.9078 4.27859L10.9109 4.27734Z" fill="#ADB5BD"/>
<path d="M10.6337 1C9.8837 1.05094 9.0087 1.52844 8.4962 2.15187C8.0312 2.71687 7.6487 3.555 7.7987 4.36781H7.8587C8.65745 4.36781 9.47495 3.88687 9.95245 3.27062C10.4125 2.68406 10.7612 1.85281 10.6337 1Z" fill="#ADB5BD"/>
</svg>
