<svg width="12" height="16" viewBox="0 0 12 16" fill="none" xmlns="http://www.w3.org/2000/svg">
<path d="M0.999349 13.8333C0.999349 14.75 1.74935 15.5 2.66602 15.5H9.33268C10.2493 15.5 10.9993 14.75 10.9993 13.8333V5.5C10.9993 4.58333 10.2493 3.83333 9.33268 3.83333H2.66602C1.74935 3.83333 0.999349 4.58333 0.999349 5.5V13.8333ZM3.64102 7.30833C3.96602 6.98333 4.49102 6.98333 4.81602 7.30833L5.99935 8.49167L7.18268 7.30833C7.50768 6.98333 8.03268 6.98333 8.35768 7.30833C8.68268 7.63333 8.68268 8.15833 8.35768 8.48333L7.17435 9.66667L8.35768 10.85C8.68268 11.175 8.68268 11.7 8.35768 12.025C8.03268 12.35 7.50768 12.35 7.18268 12.025L5.99935 10.8417L4.81602 12.025C4.49102 12.35 3.96602 12.35 3.64102 12.025C3.31602 11.7 3.31602 11.175 3.64102 10.85L4.82435 9.66667L3.64102 8.48333C3.31602 8.16667 3.31602 7.63333 3.64102 7.30833ZM8.91602 1.33333L8.32435 0.741667C8.17435 0.591667 7.95768 0.5 7.74102 0.5H4.25768C4.04102 0.5 3.82435 0.591667 3.67435 0.741667L3.08268 1.33333H0.999349C0.541016 1.33333 0.166016 1.70833 0.166016 2.16667C0.166016 2.625 0.541016 3 0.999349 3H10.9993C11.4577 3 11.8327 2.625 11.8327 2.16667C11.8327 1.70833 11.4577 1.33333 10.9993 1.33333H8.91602Z" fill="#2C2E33"/>
</svg>
