<svg width="12" height="18" viewBox="0 0 12 18" fill="none" xmlns="http://www.w3.org/2000/svg">
<path fill-rule="evenodd" clip-rule="evenodd" d="M11.8327 9.7263C11.8327 9.33464 11.5493 9.01797 11.166 8.90964C10.1077 8.61797 9.33268 7.6513 9.33268 6.5013V2.33464H10.166C10.6243 2.33464 10.9993 1.95964 10.9993 1.5013C10.9993 1.04297 10.6243 0.667969 10.166 0.667969H1.83268C1.37435 0.667969 0.999349 1.04297 0.999349 1.5013C0.999349 1.95964 1.37435 2.33464 1.83268 2.33464H2.66602V6.5013C2.66602 7.6513 1.89102 8.61797 0.832682 8.90964C0.449349 9.01797 0.166016 9.33464 0.166016 9.7263V9.83464C0.166016 10.293 0.541016 10.668 0.999349 10.668H5.14935L5.16602 16.5013C5.16602 16.9596 5.54102 17.3346 5.99935 17.3346C6.45768 17.3346 6.83268 16.9596 6.83268 16.5013L6.81602 10.668H10.9993C11.4577 10.668 11.8327 10.293 11.8327 9.83464V9.7263Z" fill="#A6A7AB"/>
</svg>
